<svg xmlns="http://www.w3.org/2000/svg" viewBox="0 0 220 160" width="220" height="160">
  <rect width="220" height="160" rx="12" fill="#e8f4fd"/>
  <ellipse cx="40" cy="35" rx="22" ry="12" fill="white" opacity="0.85"/>
  <ellipse cx="55" cy="28" rx="18" ry="10" fill="white" opacity="0.85"/>
  <ellipse cx="160" cy="45" rx="18" ry="9" fill="white" opacity="0.8"/>
  <ellipse cx="175" cy="38" rx="14" ry="8" fill="white" opacity="0.8"/>
  <ellipse cx="165" cy="50" rx="22" ry="28" fill="#0073c8"/>
  <ellipse cx="165" cy="50" rx="22" ry="28" fill="none" stroke="white" stroke-width="1" opacity="0.3"/>
  <path d="M145 58 Q165 48 185 58" stroke="white" stroke-width="1" fill="none" opacity="0.5"/>
  <path d="M145 66 Q165 56 185 66" stroke="white" stroke-width="1" fill="none" opacity="0.5"/>
  <rect x="156" y="76" width="18" height="12" rx="3" fill="#005ea8"/>
  <line x1="159" y1="76" x2="155" y2="70" stroke="#005ea8" stroke-width="1.5"/>
  <line x1="175" y1="76" x2="179" y2="70" stroke="#005ea8" stroke-width="1.5"/>
  <ellipse cx="110" cy="148" rx="105" ry="10" fill="#c8e6c9" opacity="0.6"/>
  <circle cx="80" cy="130" r="18" fill="none" stroke="#0073c8" stroke-width="3"/>
  <circle cx="120" cy="130" r="18" fill="none" stroke="#0073c8" stroke-width="3"/>
  <line x1="80" y1="130" x2="100" y2="110" stroke="#0073c8" stroke-width="3"/>
  <line x1="100" y1="110" x2="120" y2="130" stroke="#0073c8" stroke-width="3"/>
  <line x1="100" y1="110" x2="100" y2="130" stroke="#0073c8" stroke-width="2.5"/>
  <line x1="80" y1="130" x2="120" y2="130" stroke="#0073c8" stroke-width="2"/>
  <line x1="100" y1="110" x2="88" y2="104" stroke="#0073c8" stroke-width="2.5"/>
  <line x1="88" y1="104" x2="104" y2="104" stroke="#0073c8" stroke-width="2.5"/>
  <circle cx="105" cy="95" r="9" fill="#ff8a65"/>
  <path d="M98 104 Q100 110 96 120" stroke="#ff8a65" stroke-width="3" fill="none"/>
  <path d="M98 104 Q108 108 118 118" stroke="#ff8a65" stroke-width="3" fill="none"/>
</svg>
